<svg width="16" height="16" viewBox="0 0 16 16" fill="none" xmlns="http://www.w3.org/2000/svg">
<path d="M10.6274 4.9484L4.63566 10.2747C4.43729 10.466 4.33071 10.7168 4.33798 10.975C4.34525 11.2332 4.46582 11.479 4.67472 11.6617C4.88362 11.8443 5.16485 11.9497 5.46019 11.9561C5.75553 11.9624 6.04235 11.8692 6.26128 11.6958L13.404 5.36343C13.8007 4.98064 14.0138 4.47914 13.9993 3.96275C13.9848 3.44636 13.7436 2.95464 13.3258 2.58938C12.908 2.22413 12.3456 2.01332 11.7549 2.00061C11.1642 1.9879 10.5906 2.17425 10.1527 2.52108L3.01003 8.85348C2.36332 9.41886 2 10.1857 2 10.9852C2 11.7848 2.36332 12.5516 3.01003 13.117C3.65675 13.6824 4.53388 14 5.44847 14C6.36306 14 7.24019 13.6824 7.8869 13.117L13.7924 7.96682" stroke="#9E9E9E" stroke-linecap="round" stroke-linejoin="round"/>
</svg>
