<svg width="26" height="24" viewBox="0 0 26 24" fill="none" xmlns="http://www.w3.org/2000/svg">
<path d="M1 9H21" stroke="#212121" stroke-width="2" stroke-linecap="round" stroke-linejoin="round"/>
<path d="M1 1H21" stroke="#212121" stroke-width="2" stroke-linecap="round" stroke-linejoin="round"/>
<path d="M1 17H21" stroke="#212121" stroke-width="2" stroke-linecap="round" stroke-linejoin="round"/>
<path d="M17.5503 11.9217L17.5503 11.9217L17.5487 11.9252L16.5582 14.0268L14.3657 14.3606L14.3657 14.3606L14.3633 14.361C13.7516 14.4556 13.2563 14.8935 13.0749 15.4752C12.8988 16.0394 13.0357 16.6738 13.4649 17.1116C13.4649 17.1116 13.465 17.1117 13.465 17.1117C13.4651 17.1118 13.4652 17.1119 13.4653 17.1119L15.0837 18.7633L14.6996 21.1089L14.6993 21.1109C14.6035 21.7034 14.8389 22.3179 15.3362 22.6857C15.835 23.0546 16.5013 23.103 17.0489 22.805L17.0489 22.805L17.0532 22.8026L19.0005 21.7304L20.9479 22.8026L20.9479 22.8026L20.9521 22.805C21.4941 23.0999 22.1641 23.0614 22.6703 22.6817C23.1589 22.3152 23.3982 21.7075 23.3018 21.1109L23.3013 21.1082L22.9158 18.763L24.5339 17.1119C24.534 17.1118 24.5342 17.1117 24.5343 17.1116C24.9591 16.6783 25.1062 16.0426 24.922 15.4679C24.7393 14.8976 24.2528 14.4564 23.6359 14.361L23.6334 14.3606L21.4391 14.0268L20.45 11.9282C20.4497 11.9276 20.4495 11.927 20.4492 11.9264C20.1879 11.3689 19.6282 11 18.9986 11C18.3637 11 17.8113 11.3735 17.5503 11.9217Z" fill="#212121" stroke="white" stroke-width="2"/>
</svg>
