<svg width="18" height="19" viewBox="0 0 18 19" fill="none" xmlns="http://www.w3.org/2000/svg">
<path d="M2.91738 7.10015C2.91621 6.27028 3.07924 5.44838 3.39707 4.68179C3.71491 3.9152 4.18127 3.21906 4.76929 2.63347C5.35732 2.04789 6.05539 1.58443 6.82329 1.26978C7.5912 0.955139 8.41377 0.795529 9.24363 0.800146C12.7086 0.826396 15.4824 3.70515 15.4824 7.1789V7.80015C15.4824 10.9326 16.1386 12.7526 16.7161 13.7501C16.7775 13.8564 16.8098 13.9769 16.8099 14.0995C16.81 14.2222 16.7779 14.3427 16.7167 14.4491C16.6556 14.5554 16.5676 14.6438 16.4615 14.7054C16.3554 14.7671 16.235 14.7997 16.1124 14.8001H2.28738C2.16471 14.7997 2.04431 14.7671 1.93824 14.7054C1.83217 14.6438 1.74416 14.5554 1.68301 14.4491C1.62186 14.3427 1.58974 14.2222 1.58984 14.0995C1.58995 13.9769 1.62229 13.8564 1.68363 13.7501C2.26113 12.7526 2.91738 10.9326 2.91738 7.80015V7.10015Z" stroke="#212121" stroke-width="1.4" stroke-linecap="round" stroke-linejoin="round"/>
<path d="M6.40039 14.8V15.5C6.40039 16.2427 6.69539 16.9548 7.22049 17.4799C7.74559 18.005 8.45778 18.3 9.20039 18.3C9.943 18.3 10.6552 18.005 11.1803 17.4799C11.7054 16.9548 12.0004 16.2427 12.0004 15.5V14.8" stroke="#212121" stroke-width="1.4" stroke-linecap="round" stroke-linejoin="round"/>
</svg>
